<svg id="preset1" xmlns="http://www.w3.org/2000/svg" width="106.91" height="24.3" viewBox="0 0 106.91 24.3"><defs><style>.cls-1{fill:#d9842f;}.cls-2{isolation:isolate;}.cls-3{fill:#fff;}</style></defs><title>logo</title><path class="cls-1" d="M77.68,7a5.71,5.71,0,0,0,3.11-.78A5.71,5.71,0,0,0,83.9,7C86.35,7,88,6.55,89,5.54a3.64,3.64,0,0,0,1-2.69.95.95,0,0,0-1.58-.7c-.9.81-1.62.74-3.1-.29A4.3,4.3,0,0,0,82.86,1a3.36,3.36,0,0,0-2.07.76A3.36,3.36,0,0,0,78.71,1a4.29,4.29,0,0,0-2.48.85c-1.5,1-2.23,1.11-3.13.31a.95.95,0,0,0-1.58.7,3.64,3.64,0,0,0,1,2.69c1,1,2.69,1.5,5.14,1.5Z" transform="translate(-0.54 -0.85)"/><path class="cls-1" d="M78.44,8.42a2.37,2.37,0,0,0,4.7,0,7.23,7.23,0,0,1-2.35-.57A7.23,7.23,0,0,1,78.44,8.42Z" transform="translate(-0.54 -0.85)"/><path class="cls-1" d="M90.26,5.74a4.7,4.7,0,0,1-.64.8c-1.18,1.19-3,1.81-5.48,1.9a3.77,3.77,0,0,1-7.52,0c-2.5-.09-4.3-.71-5.48-1.9a4.67,4.67,0,0,1-.37-.42,7.31,7.31,0,0,0-.19,1.67,7.4,7.4,0,0,0,.51,2.7A3.54,3.54,0,0,1,72.93,9.1a.7.7,0,0,1,.47,1.33,2.14,2.14,0,0,0-1.45,1.44,6.53,6.53,0,0,0-.15,1.39,6,6,0,0,0,1.34,3.84,3.54,3.54,0,0,1,1.6-2,.7.7,0,1,1,.7,1.22,2.13,2.13,0,0,0-1.06,1.84,6.89,6.89,0,0,0,.89,2.55,5.2,5.2,0,0,0,2.13,2,6.12,6.12,0,0,1,2.17,1.77,1.23,1.23,0,0,0,2,0,6,6,0,0,1,2.14-1.75,5.27,5.27,0,0,0,2.14-2,7,7,0,0,0,.91-2.57h0a2.13,2.13,0,0,0-1.06-1.84.7.7,0,0,1,.7-1.22,3.54,3.54,0,0,1,1.6,2,6.07,6.07,0,0,0,1.31-3.84A6.6,6.6,0,0,0,89.17,12a2.14,2.14,0,0,0-1.4-1.56.7.7,0,0,1,.42-1.34A3.54,3.54,0,0,1,90,10.47a7.19,7.19,0,0,0,.52-2.69,7.32,7.32,0,0,0-.3-2Z" transform="translate(-0.54 -0.85)"/><g id="text"><g class="cls-2"><path class="cls-3" d="M.54,25.15V.85H6.87a17.46,17.46,0,0,1,3,.24A6.79,6.79,0,0,1,12.3,2,4.61,4.61,0,0,1,14,3.92a7.47,7.47,0,0,1,.62,3.29,6.24,6.24,0,0,1-.44,2.48,3.91,3.91,0,0,1-1.23,1.6A4.49,4.49,0,0,1,11,12.1a4.82,4.82,0,0,1,2.37.92,4.55,4.55,0,0,1,1.46,2,8,8,0,0,1,.5,3,9.56,9.56,0,0,1-.5,3.25,5.63,5.63,0,0,1-1.42,2.24,5.8,5.8,0,0,1-2.3,1.29A10.66,10.66,0,0,1,8,25.15ZM5.91,10.57H7a3.69,3.69,0,0,0,1.86-.37A1.88,1.88,0,0,0,9.68,9.1,5.89,5.89,0,0,0,9.9,7.36a3.37,3.37,0,0,0-.35-1.6,2.24,2.24,0,0,0-1-1,3.85,3.85,0,0,0-1.69-.33H5.91Zm0,10.83H7.05a2.88,2.88,0,0,0,2.44-.9,4.35,4.35,0,0,0,.68-2.64,6.49,6.49,0,0,0-.3-2.19,2.13,2.13,0,0,0-1-1.18A3.91,3.91,0,0,0,7,14.11H5.91Z" transform="translate(-0.54 -0.85)"/><path class="cls-3" d="M17,25.15,21.54.85h6.12l4.53,24.3h-5L26.43,20H22.86L22,25.15Zm6.39-8.34h2.58L24.63,7.33Z" transform="translate(-0.54 -0.85)"/><path class="cls-3" d="M34.41,25.15V.85H41.1a14.9,14.9,0,0,1,4.26.54,5.17,5.17,0,0,1,2.81,1.93,6.67,6.67,0,0,1,1,3.95,13.36,13.36,0,0,1-.24,2.67A5,5,0,0,1,48,12a4.87,4.87,0,0,1-1.85,1.43l3.33,11.76H44L41.31,14.26H39.78V25.15Zm5.37-14h1.5a3.27,3.27,0,0,0,1.77-.4,2.15,2.15,0,0,0,.89-1.17,5.89,5.89,0,0,0,.25-1.84,4.42,4.42,0,0,0-.57-2.43,2.32,2.32,0,0,0-2.1-.87H39.78Z" transform="translate(-0.54 -0.85)"/><path class="cls-3" d="M52.29,25.15V.85h6.33a17.46,17.46,0,0,1,3,.24A6.79,6.79,0,0,1,64.05,2a4.61,4.61,0,0,1,1.7,1.92,7.47,7.47,0,0,1,.62,3.29,6.23,6.23,0,0,1-.44,2.48,3.91,3.91,0,0,1-1.23,1.6,4.5,4.5,0,0,1-1.91.81,4.82,4.82,0,0,1,2.37.92,4.56,4.56,0,0,1,1.46,2,8,8,0,0,1,.5,3,9.56,9.56,0,0,1-.5,3.25,5.63,5.63,0,0,1-1.42,2.24,5.8,5.8,0,0,1-2.3,1.29,10.66,10.66,0,0,1-3.13.42Zm5.37-14.58h1a3.69,3.69,0,0,0,1.86-.37,1.88,1.88,0,0,0,.85-1.09,5.87,5.87,0,0,0,.23-1.74,3.37,3.37,0,0,0-.35-1.6,2.24,2.24,0,0,0-1-1,3.86,3.86,0,0,0-1.7-.33h-.93Zm0,10.83H58.8a2.88,2.88,0,0,0,2.45-.9,4.35,4.35,0,0,0,.67-2.64,6.5,6.5,0,0,0-.3-2.19,2.13,2.13,0,0,0-1-1.18,3.91,3.91,0,0,0-1.86-.37H57.66Z" transform="translate(-0.54 -0.85)"/></g><g class="cls-2"><path class="cls-3" d="M94.26,25.15V.85H98l5,11.7V.85h4.44v24.3h-3.63l-5-12.6v12.6Z" transform="translate(-0.54 -0.85)"/></g></g></svg>